<?xml version="1.0" encoding="UTF-8"?>
<!DOCTYPE svg PUBLIC "-//W3C//DTD SVG 1.1//EN" "http://www.w3.org/Graphics/SVG/1.1/DTD/svg11.dtd">
<!-- Creator: CorelDRAW -->
<svg xmlns="http://www.w3.org/2000/svg" xml:space="preserve" width="210mm" height="297mm" version="1.1" style="shape-rendering:geometricPrecision; text-rendering:geometricPrecision; image-rendering:optimizeQuality; fill-rule:evenodd; clip-rule:evenodd"
viewBox="0 0 21000 29700"
 xmlns:xlink="http://www.w3.org/1999/xlink"
 xmlns:xodm="http://www.corel.com/coreldraw/odm/2003">
 <defs>
  <style type="text/css">
   <![CDATA[
    .fil0 {fill:#0077F7}
   ]]>
  </style>
 </defs>
 <g id="Layer_x0020_1">
  <metadata id="CorelCorpID_0Corel-Layer"/>
  <path class="fil0" d="M9743.12 13072.69c19.9,-484.73 -40.3,-1055.71 36.02,-1521.26 36.87,-224.89 90.28,-404.46 184.16,-592.07 280.12,-559.82 766.82,-838.37 1381.71,-913.42 306.15,-37.36 1132.08,5.24 1413.11,92.74l-5.78 1214.96c-565.82,73.68 -960.21,-128.74 -1302.45,293.68 -126.72,156.42 -141.75,411.83 -141.33,657.23 0.38,231.75 -18.52,553.09 5.79,776.03l1379.49 -0.51c-15.63,180.98 -184.48,1362.25 -231.09,1438.29 -111.69,46.52 -943.27,3.29 -1154.25,15.88l6.4 3492.15c599.21,-63.81 1324.77,-367.65 1766.81,-635.86 464.89,-282.07 512.92,-356.81 856.77,-639.97 57.37,-47.24 103.49,-92.46 154.79,-144.74 282.37,-287.83 566.41,-670.93 773.27,-1022.71 981.4,-1668.92 865.44,-3986.87 -338.94,-5519.59 -898.99,-1144.06 -2205.34,-1987.52 -3997.18,-1989.21 -2652.92,-2.49 -4817.74,2072.12 -4991.08,4609.2 -106.96,1565.44 423.95,2708.97 1152.74,3618.87l526.47 531.6c468.71,413.99 970.54,726.58 1583.07,951.22 183.62,67.34 752.23,246.22 943.34,235.57l-6.64 -3489.86 -1261.26 -2.45 2.73 -1446.82 1263.33 -8.95z"/>
 </g>
</svg>
