<?xml version="1.0" encoding="UTF-8"?>
<!DOCTYPE svg PUBLIC "-//W3C//DTD SVG 1.1//EN" "http://www.w3.org/Graphics/SVG/1.1/DTD/svg11.dtd">
<!-- Creator: CorelDRAW -->
<svg xmlns="http://www.w3.org/2000/svg" xml:space="preserve" width="210mm" height="297mm" version="1.1" style="shape-rendering:geometricPrecision; text-rendering:geometricPrecision; image-rendering:optimizeQuality; fill-rule:evenodd; clip-rule:evenodd"
viewBox="0 0 21000 29700"
 xmlns:xlink="http://www.w3.org/1999/xlink"
 xmlns:xodm="http://www.corel.com/coreldraw/odm/2003">
 <defs>
  <style type="text/css">
   <![CDATA[
    .fil4 {fill:#CC3D33}
    .fil3 {fill:#CDCDCD}
    .fil2 {fill:#E13726}
    .fil0 {fill:#E8E8E8}
    .fil1 {fill:#FD4C3F}
   ]]>
  </style>
 </defs>
 <g id="Layer_x0020_1">
  <metadata id="CorelCorpID_0Corel-Layer"/>
  <path class="fil0" d="M6998.4 5246.32c1456.63,-32.46 0,0 1456.63,-32.46l6961.64 -14.14c-23.81,376.36 -20.96,868.62 -21.03,1252.39 -0.15,1099.73 -167,2485.36 -214.54,3522.49 -3,-4.71 -6.02,-11.57 -7.73,-14.89 -89.09,-173.17 -69.74,-74.82 -207.19,-168.41 -24.77,-16.87 -22.24,-17.39 -35.25,-29.01 -4.58,-4.09 -16.57,-16.77 -21.01,-20.89l-205.25 -149.09c-2644.45,-1666.13 -2860.93,-1888.28 -6103.99,-381.12 -220.47,205.83 -1473.87,1016.99 -1603.96,1078.93l1.68 -5043.8z"/>
  <path class="fil0" d="M7367.99 12293.83c246.65,74.18 686.48,32.46 961.05,32.46l6746.93 -7.21c-23.81,-376.37 -1.49,-817.24 -1.54,-1201.01 -0.15,-1099.74 28.22,-2515.39 -19.32,-3552.52 -3,4.71 -6.02,11.57 -7.73,14.89 -89.09,173.17 -69.74,74.82 -207.19,168.41 -24.77,16.87 -22.24,17.39 -35.25,29.01 -4.58,4.09 -16.57,16.77 -21.01,20.89l-205.25 149.09c-191.45,120.62 -428.73,316.21 -556.62,387.04 -114.45,63.42 -133.25,66.74 -233.64,167.54 -62.55,62.78 -22.99,45.61 -109.37,74.17 -93.95,31.05 -83.86,21.71 -171.24,106.21l-21.21 21.36c-128.65,136.94 -156.05,160.8 -312.3,166.48 -42.19,57.54 -25.07,102.14 -95.7,134.74 -166.73,76.92 -227.74,108.21 -384.59,247.56l-167.74 125.43c-192.72,160.51 -289.66,100.71 -321.79,223.02 -15.9,60.42 42.71,-39.74 -2.77,40.7l-239.27 115.65c-164.27,102.24 -43.87,75.61 -212.41,120.15l-285.19 72.86c-118.87,20.26 -172.63,-13.48 -304.15,-13.48 -16.85,44.45 -27.8,8.5 35.77,62.93 -150.4,0 -64.11,-19.55 -158.18,-62.63 -75.44,-34.56 -52.12,-0.92 -165.07,-0.3 -37.06,-96.22 32.93,83.64 -7.43,-44.32l-19.72 -41.49c-127.88,70.4 -406.17,317.32 -503.4,336.37 -123.33,-101.49 -254.95,-257.2 -373.96,-373.86 -477.89,-468.37 -1027.03,-1049.07 -1494.01,-1485.01 -220.47,-205.83 -978.3,-1016.99 -1108.38,-1078.93l1.68 5043.8z"/>
  <path class="fil1" d="M7369.53 12383.89l-1.54 -90.06 -1.68 -5043.8 1.04 -50.91c-68.83,-30.55 -117.61,-85.77 -164.92,-134.94 -52.4,-54.46 -77.05,-76.9 -138.39,-134.87l-284.18 -282.99c-169.5,-158.78 -432.77,-400.52 -502.91,-625.71 138.69,276.02 541.01,495.62 870.75,721.19l4075.91 2770.87 1940.56 -1319.7c215.31,-155.78 410.38,-273.2 634.83,-435.45 566.6,-409.61 1317.79,-898.35 1928.05,-1322.89 487.35,-339.06 300.01,-232.04 487.77,-576.79 -10.13,-542.92 -487.45,-874.56 -798.14,-658.12 -110.76,77.2 -223.83,150.08 -324.41,221.8 -815.66,581.72 -1730.63,1175.25 -2565.23,1755.77l-1303.43 884.46c-100.78,-53.94 -214.96,-137 -307.12,-202.41 -95.7,-67.88 -199.77,-142.79 -296.91,-206.81l-1821.03 -1240.82c-404.45,-284.73 -799.99,-542.82 -1208.59,-825.89 -201.93,-139.89 -404.06,-289.21 -610.4,-418.87 -235.13,-147.78 -563.28,150.38 -644.34,286.36 -143.61,240.9 -101.62,578.1 -101.85,903.4l-0.94 5096.97c-0.79,1090.44 620.49,885.32 1137.1,930.21z"/>
  <path class="fil2" d="M15079.81 7351.11l-2.33 5033.4c285.61,-31.34 539.65,36.36 783.07,-89.41 473.21,-244.47 353.8,-857.33 353.8,-1386.77l0.34 -4369.73 -11.42 156.72 -50.49 -101.65c-48.16,29.53 -88.54,53.86 -129.04,95.16 -309.4,315.59 -102.76,86.36 -261.42,201.29l-298.45 246.6c-21.7,16.92 -33.42,31.78 -57.02,48.16l-142.97 88.54c-146.24,77.54 -100.54,-16.65 -109.36,100.18 -54.75,-54.47 -27.25,62.66 -41.94,-65.28 0,83 6.64,13.11 -32.77,42.79z"/>
  <path class="fil3" d="M7367.35 7199.12l-1.04 50.91c130.08,61.94 887.91,873.1 1108.38,1078.93 466.98,435.94 1016.12,1016.64 1494.01,1485.01 119.01,116.66 250.63,272.37 373.96,373.86 97.23,-19.05 375.52,-265.97 503.4,-336.37l19.72 41.49c40.36,127.96 -29.63,-51.9 7.43,44.32 112.95,-0.62 89.63,-34.26 165.07,0.3 94.07,43.08 7.78,62.63 158.18,62.63 -63.57,-54.43 -52.62,-18.48 -35.77,-62.93 131.52,0 185.28,33.74 304.15,13.48l285.19 -72.86c168.54,-44.54 48.14,-17.91 212.41,-120.15l239.27 -115.65c45.48,-80.44 -13.13,19.72 2.77,-40.7 32.13,-122.31 129.07,-62.51 321.79,-223.02l167.74 -125.43c156.85,-139.35 217.86,-170.64 384.59,-247.56 70.63,-32.6 53.51,-77.2 95.7,-134.74 156.25,-5.68 183.65,-29.54 312.3,-166.48l21.21 -21.36c87.38,-84.5 77.29,-75.16 171.24,-106.21 86.38,-28.56 46.82,-11.39 109.37,-74.17 100.39,-100.8 119.19,-104.12 233.64,-167.54 127.89,-70.83 365.17,-266.42 556.62,-387.04l205.25 -149.09c4.44,-4.12 16.43,-16.8 21.01,-20.89 13.01,-11.62 10.48,-12.14 35.25,-29.01 137.45,-93.59 118.1,4.76 207.19,-168.41 1.71,-3.32 4.73,-10.18 7.73,-14.89 47.54,1037.13 19.17,2452.78 19.32,3552.52 0.05,383.77 -22.27,824.64 1.54,1201.01l-6746.93 7.21c-274.57,0 -714.4,41.72 -961.05,-32.46l1.54 90.06 7707.95 0.62 2.33 -5033.4 -5.16 -405.43c-593.6,356.28 -3580.11,2486.83 -3851.04,2619.81 -113.71,-50.26 -370.76,-244.44 -490.07,-326.96l-2403.83 -1644.54c-164.65,-110.94 -313.36,-213.75 -485.77,-332.66 -150.1,-103.56 -342.96,-251.78 -475.8,-316.98l-0.79 254.77z"/>
  <path class="fil4" d="M7367.35 7199.12l0.79 -254.77c132.84,65.2 325.7,213.42 475.8,316.98 172.41,118.91 321.12,221.72 485.77,332.66l2403.83 1644.54c119.31,82.52 376.36,276.7 490.07,326.96 270.93,-132.98 3257.44,-2263.53 3851.04,-2619.81l5.16 405.43c39.41,-29.68 32.77,40.21 32.77,-42.79 14.69,127.94 -12.81,10.81 41.94,65.28 8.82,-116.83 -36.88,-22.64 109.36,-100.18l142.97 -88.54c23.6,-16.38 35.32,-31.24 57.02,-48.16l298.45 -246.6c158.66,-114.93 -47.98,114.3 261.42,-201.29 40.5,-41.3 80.88,-65.63 129.04,-95.16l50.49 101.65 11.42 -156.72 0.13 -680.76c-187.76,344.75 -0.42,237.73 -487.77,576.79 -610.26,424.54 -1361.45,913.28 -1928.05,1322.89 -224.45,162.25 -419.52,279.67 -634.83,435.45l-1940.56 1319.7 -4075.91 -2770.87c-329.74,-225.57 -732.06,-445.17 -870.75,-721.19 70.14,225.19 333.41,466.93 502.91,625.71l284.18 282.99c61.34,57.97 85.99,80.41 138.39,134.87 47.31,49.17 96.09,104.39 164.92,134.94z"/>
 </g>
</svg>
