<?xml version="1.0" encoding="UTF-8"?>
<!DOCTYPE svg PUBLIC "-//W3C//DTD SVG 1.1//EN" "http://www.w3.org/Graphics/SVG/1.1/DTD/svg11.dtd">
<!-- Creator: CorelDRAW -->
<svg xmlns="http://www.w3.org/2000/svg" xml:space="preserve" width="210mm" height="297mm" version="1.1" style="shape-rendering:geometricPrecision; text-rendering:geometricPrecision; image-rendering:optimizeQuality; fill-rule:evenodd; clip-rule:evenodd"
viewBox="0 0 21000 29700"
 xmlns:xlink="http://www.w3.org/1999/xlink"
 xmlns:xodm="http://www.corel.com/coreldraw/odm/2003">
 <defs>
  <style type="text/css">
   <![CDATA[
    .fil0 {fill:#00AFF2}
    .fil1 {fill:white}
   ]]>
  </style>
 </defs>
 <g id="Layer_x0020_1">
  <metadata id="CorelCorpID_0Corel-Layer"/>
  <g id="_1945424416">
   <path class="fil0" d="M9963.55 13158.52c-2.62,-43.33 -13.46,-85.69 -18.61,-131.34 -5.39,-47.87 -7.56,-92.98 -6.94,-142.38 6.91,-552.84 403.09,-1026.81 971.12,-1121.64 380.99,-63.6 699.52,79.04 917.91,255.21 82.23,66.33 80.52,98.66 130.06,87.33 102.02,-23.34 189.13,-44.94 287.52,-80.94 229.99,-84.16 227.25,-104.2 406.65,-187.96 -10.99,99.11 -135.14,291.8 -191.48,364.05 -58.52,75.04 -136.84,151.29 -213.48,205.86 -25.56,18.19 -62.22,36.02 -79.05,57.52 91.13,0.08 253.89,-42.63 338.47,-66.4 87.19,-24.49 279.29,-99.84 298.59,-104.34 -9.81,26.94 -40.72,64.97 -58.03,88.79 -22,30.23 -41.12,52.27 -63.44,80.9 -65,83.33 -198.59,220.25 -282.43,294.48l-156.18 127.88c-10.34,41.75 -2.73,214.36 -5.1,274.74 -3.47,88.45 -11.95,169.82 -22.98,256.21 -75.12,588.49 -297.41,1144.93 -640.7,1604.44 -117.49,157.28 -251.77,311.08 -395.19,443.88 -141.17,130.72 -308.36,257.3 -472.01,360.91 -812.8,514.62 -1993.22,631.84 -2937.95,249.39 -196.59,-79.59 -287.34,-128.19 -466.32,-228.63 -12.06,-6.77 -77.12,-42.39 -80.15,-54.67 -0.67,-2.71 -2.43,-3.09 -3.45,-4.76 212.68,1.58 263.5,30.04 522.43,-1.25 276.97,-33.47 597.61,-123.79 831.78,-258.02 56.8,-32.56 299.04,-175.37 324.89,-213.89 -162.45,-21.4 -244.14,-22.07 -387.58,-78.94 -139.29,-55.2 -255.13,-129.55 -361.01,-222.33 -117.95,-103.38 -298.42,-358.46 -313.83,-496.73 138.66,7.51 333.82,39.57 493.65,-18.18 -10.66,-20.12 -72.96,-25.5 -96.83,-32.87 -29.07,-8.96 -60.66,-21.54 -91.77,-33.44 -54.2,-20.73 -125.73,-58.81 -169.29,-86.27 -337.5,-212.77 -530.94,-543.63 -544.12,-987.26 22.49,0.48 35.56,13.33 57.88,24.54 101.96,51.16 371.38,131.79 454.99,108.95 -99.41,-61.58 -211.6,-178.93 -276.32,-268.13 -280.27,-386.29 -286.39,-851.07 -72.46,-1252.87 23.21,9.95 7.07,-0.63 24.15,16.35 35.03,34.86 123.11,143.04 196.8,216.01l113.99 108.99c239.43,219.72 495.06,391.34 795.67,535.37 338.35,162.12 877.46,319.33 1240.15,311.44zm-4952.83 919.58c0,1003.91 338.9,2013.18 904.32,2816.23 182.51,259.22 361.11,466.71 562.9,669.84 873.45,879.22 2147.38,1460.68 3486.17,1460.68 662.43,0 1316.37,-112.09 1917.09,-361.08 338.73,-140.4 611.75,-281.86 916.27,-486.82 31.95,-21.49 58.2,-40.87 89.01,-61.78 250.95,-170.34 461.99,-360.61 672.05,-567.12 240.75,-236.67 506.84,-576.85 690.82,-869.85 297.79,-474.21 505.05,-979.32 635,-1534.99 288.73,-1234.53 70.99,-2552.07 -533.97,-3602.34 -88.28,-153.25 -149.62,-245.01 -245.45,-384.24 -188.77,-274.26 -353.99,-453.52 -572.37,-679.87 -198.66,-205.9 -448.44,-397.95 -687.96,-570.78 -346.62,-250.13 -852.19,-494.5 -1255.34,-626.08 -162.83,-53.14 -312.76,-94.12 -488.9,-134.98 -739.28,-171.48 -1509.76,-150.14 -2246.01,15.09 -340.7,76.47 -630.11,189.66 -921.67,317.02 -478.54,209.04 -916.99,514.57 -1300.62,862.67 -444.15,403.01 -891.22,977.27 -1170.73,1608.78 -311.81,704.53 -450.61,1326.06 -450.61,2129.62z"/>
   <path class="fil1" d="M9963.55 13158.52c-362.69,7.89 -901.8,-149.32 -1240.15,-311.44 -300.61,-144.03 -556.24,-315.65 -795.67,-535.37l-113.99 -108.99c-73.69,-72.97 -161.77,-181.15 -196.8,-216.01 -17.08,-16.98 -0.94,-6.4 -24.15,-16.35 -213.93,401.8 -207.81,866.58 72.46,1252.87 64.72,89.2 176.91,206.55 276.32,268.13 -83.61,22.84 -353.03,-57.79 -454.99,-108.95 -22.32,-11.21 -35.39,-24.06 -57.88,-24.54 13.18,443.63 206.62,774.49 544.12,987.26 43.56,27.46 115.09,65.54 169.29,86.27 31.11,11.9 62.7,24.48 91.77,33.44 23.87,7.37 86.17,12.75 96.83,32.87 -159.83,57.75 -354.99,25.69 -493.65,18.18 15.41,138.27 195.88,393.35 313.83,496.73 105.88,92.78 221.72,167.13 361.01,222.33 143.44,56.87 225.13,57.54 387.58,78.94 -25.85,38.52 -268.09,181.33 -324.89,213.89 -234.17,134.23 -554.81,224.55 -831.78,258.02 -258.93,31.29 -309.75,2.83 -522.43,1.25 1.02,1.67 2.78,2.05 3.45,4.76 3.03,12.28 68.09,47.9 80.15,54.67 178.98,100.44 269.73,149.04 466.32,228.63 944.73,382.45 2125.15,265.23 2937.95,-249.39 163.65,-103.61 330.84,-230.19 472.01,-360.91 143.42,-132.8 277.7,-286.6 395.19,-443.88 343.29,-459.51 565.58,-1015.95 640.7,-1604.44 11.03,-86.39 19.51,-167.76 22.98,-256.21 2.37,-60.38 -5.24,-232.99 5.1,-274.74l156.18 -127.88c83.84,-74.23 217.43,-211.15 282.43,-294.48 22.32,-28.63 41.44,-50.67 63.44,-80.9 17.31,-23.82 48.22,-61.85 58.03,-88.79 -19.3,4.5 -211.4,79.85 -298.59,104.34 -84.58,23.77 -247.34,66.48 -338.47,66.4 16.83,-21.5 53.49,-39.33 79.05,-57.52 76.64,-54.57 154.96,-130.82 213.48,-205.86 56.34,-72.25 180.49,-264.94 191.48,-364.05 -179.4,83.76 -176.66,103.8 -406.65,187.96 -98.39,36 -185.5,57.6 -287.52,80.94 -49.54,11.33 -47.83,-21 -130.06,-87.33 -218.39,-176.17 -536.92,-318.81 -917.91,-255.21 -568.03,94.83 -964.21,568.8 -971.12,1121.64 -0.62,49.4 1.55,94.51 6.94,142.38 5.15,45.65 15.99,88.01 18.61,131.34z"/>
  </g>
 </g>
</svg>
